<?xml version="1.0" encoding="UTF-8"?>
<svg width="19px" height="20px" viewBox="0 0 19 20" version="1.1" xmlns="http://www.w3.org/2000/svg" xmlns:xlink="http://www.w3.org/1999/xlink">
    <!-- Generator: Sketch 63.1 (92452) - https://sketch.com -->
    <title>gougou</title>
    <desc>Created with Sketch.</desc>
    <g id="页面-1" stroke="none" stroke-width="1" fill="none" fill-rule="evenodd">
        <g id="未上传" transform="translate(-484.000000, -118.000000)">
            <g id="-mockplus-" transform="translate(260.000000, 70.000000)">
                <g id="编组-7">
                    <g id="编组-7备份-7">
                        <g>
                            <g id="fr4">
                                <g id="编组-2">
                                    <g id="-mockplus-" transform="translate(224.000000, 48.000000)">
                                        <g id="编组-2">
                                            <g id="编组">
                                                <g>
                                                    <polygon id="矩形" fill="#2B8CED" points="19 -5.55111512e-16 19 20 3.3223424e-13 20"></polygon>
                                                    <path d="M16.5429687,10.9720714 L16.5012333,11.0279092 L11.8315967,16.5680392 L9.80923572,13.7025365 L9.76750034,13.6466987 C9.54803407,13.3816074 9.20566323,13.3701131 8.9754114,13.620106 C8.74515958,13.870099 8.70189127,14.3002961 8.8753084,14.6153846 L8.91231901,14.6757094 L11.3874694,18.2102684 L11.4319609,18.2671033 L11.4662154,18.3034976 L11.5162191,18.3483672 L11.5658291,18.3832658 L11.6201638,18.4131789 L11.6705612,18.4341181 L11.7205649,18.4490747 L11.7737185,18.4580486 L11.8296281,18.4615385 L11.8843566,18.4585472 L11.9272731,18.4510689 L11.9678273,18.4410978 L12.0087752,18.4261413 L12.0627162,18.4012137 L12.1064202,18.3742919 L12.1576051,18.3359034 L12.1891035,18.3069874 L12.2213893,18.2730859 L12.267062,18.2152539 L17.3942127,12.0070647 L17.4312233,11.9472385 C17.6053346,11.6331923 17.5634866,11.2032479 17.3343658,10.9521293 C17.1055564,10.7008321 16.763701,10.7094464 16.5429687,10.9720714 Z" id="路径" fill="#FFFFFF"></path>
                                                </g>
                                            </g>
                                        </g>
                                    </g>
                                </g>
                            </g>
                        </g>
                    </g>
                </g>
            </g>
        </g>
    </g>
</svg>