<svg xmlns:xlink="http://www.w3.org/1999/xlink" xmlns="http://www.w3.org/2000/svg" aria-hidden="true" width="24" height="24"><defs><symbol xmlns="http://www.w3.org/2000/svg" xmlns:xlink="http://www.w3.org/1999/xlink" viewBox="0 0 24 24" id="icon-shop_cart">
    <!-- Generator: Sketch 60 (88103) - https://sketch.com -->
    <defs>
        <filter x="-0.5%" y="-7.9%" width="101.0%" height="117.5%" filterUnits="objectBoundingBox" id="icon-shop_cart_filter-1">
            <feOffset dx="0" dy="0" in="SourceAlpha" result="shadowOffsetOuter1"></feOffset>
            <feGaussianBlur stdDeviation="1.5" in="shadowOffsetOuter1" result="shadowBlurOuter1"></feGaussianBlur>
            <feColorMatrix values="0 0 0 0 0.778413267   0 0 0 0 0.807593482   0 0 0 0 0.866536458  0 0 0 0.2 0" type="matrix" in="shadowBlurOuter1" result="shadowMatrixOuter1"></feColorMatrix>
            <feMerge>
                <feMergeNode in="shadowMatrixOuter1"></feMergeNode>
                <feMergeNode in="SourceGraphic"></feMergeNode>
            </feMerge>
        </filter>
    </defs>
    <g id="icon-shop_cart_页面-1" stroke="none" stroke-width="1" fill="none" fill-rule="evenodd">
        <g id="icon-shop_cart_首页" transform="translate(-1656.000000, -67.000000)" fill="none">
            <g id="icon-shop_cart_编组-2" filter="url(#icon-shop_cart_filter-1)" fill="none">
                <g id="icon-shop_cart_nav_bar" fill="none">
                    <g fill="none">
                        <g transform="translate(240.000000, 40.000000)" id="icon-shop_cart_-mockplus-" fill="none">
                            <g transform="translate(1416.000000, 27.000000)" fill="none">
                                <g id="icon-shop_cart_shopping-_icon" fill="none">
                                    <g id="icon-shop_cart_-mockplus-" fill="none">
                                        <g fill="none">
                                            <g id="icon-shop_cart_shopping-_icon" fill="none">
                                                <g fill="none">
                                                    <g transform="translate(6.000000, 12.000000)" fill="#222222">
                                                        <circle id="icon-shop_cart_椭圆形" cx="2" cy="10" r="2" fill="#222222"></circle>
                                                        <circle id="icon-shop_cart_椭圆形备份" cx="15" cy="10" r="2" fill="#222222"></circle>
                                                        <path d="M11.5,0.5 C11.5,0.776142375 11.2761424,1 11,1 L1.5,1 L1.5,1 C1.22385763,1 1,0.776142375 1,0.5 C1,0.254540111 1.17687516,0.0503916296 1.41012437,0.00805566941 L1.5,0 L11,0 C11.2761424,-5.07265313e-17 11.5,0.223857625 11.5,0.5 Z" id="icon-shop_cart_路径-3" fill-rule="nonzero" fill="#222222"></path>
                                                    </g>
                                                    <path d="M1,2 L4.17007371,2 C4.65128878,2 5.06426348,2.34273856 5.1529459,2.81571146 L7.8470541,17.1842885 C7.93573652,17.6572614 8.34871122,18 8.82992629,18 L20.1654236,18 C20.6487098,18 21.0628407,17.6543761 21.1492936,17.1788854 L22.7856572,8.17888544 C22.8844529,7.63550909 22.5240491,7.11492579 21.9806727,7.01613009 C21.9216488,7.00539847 21.8617789,7 21.8017873,7 L6,7 L6,7" id="icon-shop_cart_路径-7" stroke="#222222" stroke-linecap="round" fill="none"></path>
                                                </g>
                                            </g>
                                        </g>
                                    </g>
                                </g>
                            </g>
                        </g>
                    </g>
                </g>
            </g>
        </g>
    </g>
</symbol></defs><use xlink:href="#icon-shop_cart"></use></svg>