<?xml version="1.0" encoding="UTF-8"?>
<svg width="16px" height="16px" viewBox="0 0 16 16" version="1.1" xmlns="http://www.w3.org/2000/svg" xmlns:xlink="http://www.w3.org/1999/xlink">
    <!-- Generator: Sketch 60 (88103) - https://sketch.com -->
    <title>delete_icon</title>
    <desc>Created with Sketch.</desc>
    <g id="组件" stroke="none" stroke-width="1" fill="none" fill-rule="evenodd">
        <g id="delete_icon">
            <g transform="translate(0.000000, 1.000000)">
                <g>
                    <rect id="矩形" fill="#CCCCCC" x="0" y="2.28571429" width="16" height="1.14285714" rx="0.380952381"></rect>
                    <path d="M4.19047619,0 L11.8095238,0 C12.2303122,7.81195049e-16 12.5714286,0.341116381 12.5714286,0.761904762 L12.5714286,2.28571429 L12.5714286,2.28571429 L3.42857143,2.28571429 L3.42857143,0.761904762 C3.42857143,0.341116381 3.76968781,2.99342176e-16 4.19047619,0 Z" id="矩形" fill="#CCCCCC"></path>
                    <path d="M2.85714286,14.2857143 L13.1428571,14.2857143 L13.1428571,3.80952381 C13.1428571,3.28353833 12.7164617,2.85714286 12.1904762,2.85714286 L3.80952381,2.85714286 C3.28353833,2.85714286 2.85714286,3.28353833 2.85714286,3.80952381 L2.85714286,14.2857143 Z" id="矩形备份" stroke="#CCCCCC" stroke-width="1.14285714" transform="translate(8.000000, 8.571429) scale(1, -1) translate(-8.000000, -8.571429) "></path>
                    <rect id="矩形" fill="#CCCCCC" x="4.57142857" y="5.71428571" width="1.14285714" height="5.71428571" rx="0.571428571"></rect>
                    <rect id="矩形备份-4" fill="#BBBBBB" x="10.2857143" y="5.71428571" width="1.14285714" height="5.71428571" rx="0.571428571"></rect>
                    <rect id="矩形备份-5" fill="#CCCCCC" x="8" y="5.71428571" width="1.14285714" height="5.71428571" rx="0.571428571"></rect>
                </g>
            </g>
        </g>
    </g>
</svg>