<svg xmlns:xlink="http://www.w3.org/1999/xlink" xmlns="http://www.w3.org/2000/svg" aria-hidden="true" width="24" height="24" class="opacity-40 hover:opacity-100"><defs><symbol xmlns="http://www.w3.org/2000/svg" xmlns:xlink="http://www.w3.org/1999/xlink" viewBox="0 0 24 24" id="icon-instagram">
    <!-- Generator: Sketch 60 (88103) - https://sketch.com -->
    <g id="icon-instagram_页面-1" stroke="none" stroke-width="1" fill="none" fill-rule="evenodd">
        <g id="icon-instagram_首页" transform="translate(-1588.000000, -3981.000000)" fill="none">
            <g id="icon-instagram_-mockplus-" transform="translate(1588.000000, 3981.000000)" fill="none">
                <g id="icon-instagram_face-book备份-2" fill="none">
                    <g fill="none">
                        <g fill="none">
                            <circle id="icon-instagram_椭圆形" fill="#313131" cx="12" cy="12" r="10.8"></circle>
                            <path d="M12,0 C5.35384615,0 0,5.35384615 0,12 C0,18.6461539 5.35384615,24 12,24 C18.6461539,24 24,18.6461539 24,12 C24,5.35384615 18.6461539,0 12,0 Z M14.1729054,11.9802144 C14.1729054,11.3749403 13.9587754,10.8581733 13.5305155,10.4299133 C13.1022555,10.0016534 12.5854885,9.78752336 11.9802144,9.78752336 C11.3749403,9.78752336 10.8581733,10.0016533 10.4299133,10.4299133 C10.0016533,10.8581733 9.78752336,11.3749403 9.78752336,11.9802144 C9.78752336,12.5854885 10.0016533,13.1022555 10.4299133,13.5305155 C10.8581733,13.9587754 11.3749403,14.1729054 11.9802144,14.1729054 C12.5854885,14.1729054 13.1022555,13.9587754 13.5305155,13.5305155 C13.9587754,13.1022555 14.1729054,12.5854885 14.1729054,11.9802144 Z M15.3549029,11.9802144 C15.3549029,12.9166762 15.0265703,13.7132397 14.369905,14.369905 C13.7132397,15.0265703 12.9166762,15.3549029 11.9802144,15.3549029 C11.0437526,15.3549029 10.2471891,15.0265703 9.59052378,14.369905 C8.9338585,13.7132397 8.60552585,12.9166762 8.60552585,11.9802144 C8.60552585,11.0437526 8.9338585,10.2471891 9.59052378,9.59052378 C10.2471891,8.93385849 11.0437526,8.60552585 11.9802144,8.60552585 C12.9166762,8.60552585 13.7132397,8.93385851 14.369905,9.59052378 C15.0265703,10.2471891 15.3549029,11.0437526 15.3549029,11.9802144 Z M16.2799445,8.46848267 C16.2799445,8.68546772 16.2028577,8.87104704 16.0486841,9.02522062 C15.8945105,9.1793942 15.7089312,9.256481 15.4919461,9.256481 C15.2749611,9.256481 15.0893818,9.1793942 14.9352082,9.02522062 C14.7810346,8.87104704 14.7039478,8.68546772 14.7039478,8.46848267 C14.7039478,8.25149761 14.7810346,8.0659183 14.9352082,7.91174471 C15.0893817,7.75757113 15.2749611,7.68048432 15.4919461,7.68048432 C15.7089312,7.68048432 15.8945105,7.75757111 16.0486841,7.91174471 C16.2028576,8.06591832 16.2799445,8.25149763 16.2799445,8.46848267 Z M11.9802144,6.58413881 C11.9402435,6.58413881 11.7218309,6.58271128 11.3249766,6.57985621 C10.9281224,6.57700115 10.6269129,6.57700115 10.4213481,6.57985621 C10.2157833,6.58271128 9.94026942,6.59127647 9.59480638,6.6055518 C9.24934333,6.61982713 8.95527149,6.64837779 8.71259084,6.6912038 C8.4699102,6.7340298 8.26577295,6.78684853 8.10017909,6.84965999 C7.81467244,6.96386265 7.56342659,7.1294565 7.34644155,7.34644155 C7.12945651,7.5634266 6.96386266,7.81467245 6.84965999,8.10017909 C6.78684853,8.26577295 6.7340298,8.4699102 6.6912038,8.71259084 C6.64837779,8.95527149 6.61982713,9.24934333 6.6055518,9.59480638 C6.59127647,9.94026942 6.58271128,10.2157833 6.57985621,10.4213481 C6.57700115,10.6269129 6.57700115,10.9281224 6.57985621,11.3249766 C6.58271128,11.7218309 6.58413881,11.9402435 6.58413881,11.9802144 C6.58413881,12.0201853 6.58271128,12.2385979 6.57985621,12.6354521 C6.57700115,13.0323064 6.57700115,13.3335159 6.57985621,13.5390807 C6.58271128,13.7446454 6.59127647,14.0201594 6.6055518,14.3656224 C6.61982713,14.7110854 6.64837779,15.0051573 6.6912038,15.2478379 C6.7340298,15.4905186 6.78684853,15.6946558 6.84965999,15.8602497 C6.96386265,16.1457563 7.1294565,16.3970022 7.34644155,16.6139872 C7.5634266,16.8309723 7.81467245,16.9965661 8.10017909,17.1107688 C8.26577295,17.1735802 8.4699102,17.226399 8.71259084,17.269225 C8.95527149,17.312051 9.24934333,17.3406017 9.59480638,17.354877 C9.94026942,17.3691523 10.2157833,17.3777175 10.4213481,17.3805726 C10.6269129,17.3834276 10.9281224,17.3834276 11.3249766,17.3805726 C11.7218309,17.3777175 11.9402435,17.37629 11.9802144,17.37629 C12.0201853,17.37629 12.2385979,17.3777175 12.6354521,17.3805726 C13.0323064,17.3834276 13.3335159,17.3834276 13.5390807,17.3805726 C13.7446454,17.3777175 14.0201594,17.3691523 14.3656224,17.354877 C14.7110854,17.3406017 15.0051573,17.312051 15.2478379,17.269225 C15.4905186,17.226399 15.6946558,17.1735802 15.8602497,17.1107688 C16.1457563,16.9965661 16.3970022,16.8309723 16.6139872,16.6139872 C16.8309723,16.3970022 16.9965661,16.1457563 17.1107688,15.8602497 C17.1735802,15.6946558 17.226399,15.4905186 17.269225,15.2478379 C17.312051,15.0051573 17.3406017,14.7110854 17.354877,14.3656224 C17.3691523,14.0201594 17.3777175,13.7446454 17.3805726,13.5390807 C17.3834276,13.3335159 17.3834276,13.0323064 17.3805726,12.6354521 C17.3777175,12.2385979 17.37629,12.0201853 17.37629,11.9802144 C17.37629,11.9402435 17.3777175,11.7218309 17.3805726,11.3249766 C17.3834276,10.9281224 17.3834276,10.6269129 17.3805726,10.4213481 C17.3777175,10.2157833 17.3691523,9.94026942 17.354877,9.59480638 C17.3406017,9.24934333 17.312051,8.95527149 17.269225,8.71259084 C17.226399,8.4699102 17.1735802,8.26577295 17.1107688,8.10017909 C16.9965661,7.81467244 16.8309723,7.56342659 16.6139872,7.34644155 C16.3970022,7.12945651 16.1457563,6.96386266 15.8602497,6.84965999 C15.6946558,6.78684853 15.4905186,6.7340298 15.2478379,6.6912038 C15.0051573,6.64837779 14.7110854,6.61982713 14.3656224,6.6055518 C14.0201594,6.59127647 13.7446454,6.58271128 13.5390807,6.57985621 C13.3335159,6.57700115 13.0323064,6.57700115 12.6354521,6.57985621 C12.2385979,6.58271128 12.0201853,6.58413881 11.9802144,6.58413881 Z M18.5582875,11.9802144 C18.5582875,13.2878348 18.5440121,14.1928909 18.5154615,14.6953826 C18.4583602,15.8830902 18.1043319,16.8024216 17.4533768,17.4533768 C16.8024216,18.1043319 15.8830902,18.4583602 14.6953826,18.5154615 C14.1928909,18.5440121 13.2878348,18.5582875 11.9802144,18.5582875 C10.672594,18.5582875 9.76753789,18.5440121 9.2650462,18.5154615 C8.07733856,18.4583602 7.15800716,18.1043319 6.50705202,17.4533768 C5.85609687,16.8024216 5.50206863,15.8830902 5.4449673,14.6953826 C5.41641663,14.1928909 5.4021413,13.2878348 5.4021413,11.9802144 C5.4021413,10.672594 5.41641663,9.76753789 5.4449673,9.2650462 C5.50206863,8.07733856 5.85609687,7.15800716 6.50705202,6.50705202 C7.15800716,5.85609687 8.07733856,5.50206863 9.2650462,5.4449673 C9.76753789,5.41641663 10.672594,5.4021413 11.9802144,5.4021413 C13.2878348,5.4021413 14.1928909,5.41641663 14.6953826,5.4449673 C15.8830902,5.50206863 16.8024216,5.85609687 17.4533768,6.50705202 C18.1043319,7.15800716 18.4583602,8.07733856 18.5154615,9.2650462 C18.5440121,9.76753789 18.5582875,10.672594 18.5582875,11.9802144 Z" id="icon-instagram_形状1" fill="#FFFFFF" fill-rule="nonzero"></path>
                        </g>
                    </g>
                </g>
            </g>
        </g>
    </g>
</symbol></defs><use xlink:href="#icon-instagram"></use></svg>