<svg xmlns:xlink="http://www.w3.org/1999/xlink" xmlns="http://www.w3.org/2000/svg" aria-hidden="true" width="25" height="28" class="mr-10"><defs><symbol xmlns="http://www.w3.org/2000/svg" xmlns:xlink="http://www.w3.org/1999/xlink" viewBox="0 0 25 28" id="icon-fast_stable_delivery">
    <!-- Generator: Sketch 60 (88103) - https://sketch.com -->
    <g id="icon-fast_stable_delivery_页面-1" stroke="none" stroke-width="1" fill="none" fill-rule="evenodd">
        <g id="icon-fast_stable_delivery_首页" transform="translate(-240.000000, -2972.000000)" fill="none">
            <g id="icon-fast_stable_delivery_编组-32" transform="translate(239.000000, 2812.000000)" fill="none">
                <g id="icon-fast_stable_delivery_编组-6备份" transform="translate(1.000000, 161.000000)" fill="none">
                    <g id="icon-fast_stable_delivery_-mockplus-" fill="none">
                        <g id="icon-fast_stable_delivery_sta" transform="translate(0.000000, -1.000000)" fill="none">
                            <g transform="translate(0.000000, 1.000000)" fill="none">
                                <path d="M0.932177561,8.9824918 L0.932177561,20.1616703 L11.185422,26.0145912 L11.185422,15.4300973 L0.932177561,8.9824918 Z" id="icon-fast_stable_delivery_路径-3" stroke="#2B8CED" stroke-width="0.8px" fill="none"></path>
                                <polygon id="icon-fast_stable_delivery_路径-3备份-3" fill="#2B8CED" opacity="0.1" points="0.532177561 8.25844354 0.532177561 20.3939188 11.585422 26.7035085 11.585422 15.2091176"></polygon>
                                <path d="M22.427715,9.30789795 L11.985422,15.4381284 L11.985422,26.0387814 L22.427715,20.5040159 L22.427715,9.30789795 Z" id="icon-fast_stable_delivery_路径-3备份" stroke="#2B8CED" stroke-width="0.8px" fill="none"></path>
                                <path d="M22.0293545,8.61409081 L11.7673224,2.75615361 L1.33056595,8.28798461 L11.5925609,14.7410927 L22.0293545,8.61409081 Z" id="icon-fast_stable_delivery_路径-3备份-2" stroke="#2B8CED" stroke-width="0.8px" fill="none"></path>
                                <line x1="6.0587998" y1="11.4800604" x2="16.4845538" y2="5.58177497" id="icon-fast_stable_delivery_路径-4" stroke="#2B8CED" stroke-width="0.8px" fill="none"></line>
                                <path d="M19.7321776,7.37335615 L24.0177172,7.37335615 L23.6804077,7.97017013 L17.3534119,19.1632338 C17.0573689,19.7710775 16.7816807,20.0786956 16.3631944,19.9873961 C15.8985272,19.8860215 15.8307535,19.4503182 15.9069712,18.6381696 L16.492728,12.4197641 L12.2835823,12.4197641 L17.2538536,2.52642044 L17.9621716,1.11749597 C18.3361066,0.276826863 18.6669927,-0.12642465 19.1609238,0.0250326117 C19.6037141,0.160808228 19.7321776,0.646051687 19.7321776,1.49727736 L19.7321776,7.37335615 Z" id="icon-fast_stable_delivery_路径-23" stroke="#FFFFFF" stroke-width="0.8px" fill="#2B8CED"></path>
                            </g>
                        </g>
                    </g>
                </g>
            </g>
        </g>
    </g>
</symbol></defs><use xlink:href="#icon-fast_stable_delivery"></use></svg>