<svg xmlns:xlink="http://www.w3.org/1999/xlink" xmlns="http://www.w3.org/2000/svg" aria-hidden="true" width="24" height="24" class="mr-10"><defs><symbol xmlns="http://www.w3.org/2000/svg" xmlns:xlink="http://www.w3.org/1999/xlink" viewBox="0 0 24 24" id="icon-excellent_quality">
    <!-- Generator: Sketch 60 (88103) - https://sketch.com -->
    <g id="icon-excellent_quality_页面-1" stroke="none" stroke-width="1" fill="none" fill-rule="evenodd">
        <g id="icon-excellent_quality_首页" transform="translate(-241.000000, -2812.000000)" fill="none">
            <g id="icon-excellent_quality_编组-32" transform="translate(239.000000, 2812.000000)" fill="none">
                <g id="icon-excellent_quality_编组-6" transform="translate(1.000000, 0.000000)" fill="none">
                    <g id="icon-excellent_quality_-mockplus-" transform="translate(1.000000, 0.000000)" fill="none">
                        <g id="icon-excellent_quality_qua" fill="none">
                            <g fill="none">
                                <path d="M3.81747493,8.448 L3.47851578,8.448 C1.87771708,8.448 0.576,9.7191916 0.576,11.2824513 L0.576,20.9735487 C0.576,22.5368084 1.87771708,23.808 3.47851578,23.808 L3.81747493,23.808 C5.41827362,23.808 6.71999536,22.5368084 6.71999536,20.9735487 L6.71999536,11.2824513 C6.7228391,9.7191916 5.41827362,8.448 3.81747493,8.448 Z" id="icon-excellent_quality_形状" fill="#2B8CED" fill-rule="nonzero"></path>
                                <path d="M21.5690569,9.8267886 C20.8416776,8.99161846 19.6534589,8.99161846 19.262368,8.99161846 L16.1286589,8.99161846 C16.3827434,7.69298771 16.5994626,5.13676324 16.1336409,3.5440585 C15.8147898,2.44775065 15.229399,1.66904272 14.3401031,1.16558804 C13.8742815,0.902097741 13.3910227,0.768 12.9002908,0.768 C11.60994,0.768 10.6434225,1.67139531 10.498943,3.01943049 C10.4441405,3.52288517 10.39432,4.00046133 10.2672777,4.40981233 C9.79398302,5.91311859 8.63814756,8.10704389 7.56949795,9.02690734 C7.170934,9.36568058 6.74496877,9.9726493 6.73998672,10.654901 C6.72504057,12.4805123 6.72254955,14.3131814 6.72254955,16.1858446 L6.72,19.5124096 C6.71507647,20.6251856 7.3428147,21.5215232 8.38904508,21.9049957 C8.94205257,22.1167289 9.52744338,22.2343585 10.1352534,22.2508267 C11.101771,22.2625896 12.0732706,22.2625896 12.9824947,22.2625896 L14.3998877,22.2625896 C15.3265489,22.2625896 16.2532101,22.2625896 17.1848534,22.272 L17.2147457,22.272 C18.2983414,22.272 19.1502719,21.7614875 19.5538179,20.8722078 L19.6733871,20.6110701 C19.9548728,19.9993962 20.2438317,19.3665489 20.4231855,18.663124 C20.9712109,16.5246179 21.5416556,14.2355459 22.0024952,11.986468 C22.186831,11.0948357 22.0423516,10.3678848 21.5690569,9.8267886 Z" id="icon-excellent_quality_路径" stroke="#2B8CED" stroke-width="1.59263px" fill-rule="nonzero" fill="none"></path>
                                <path d="M7.2,13.92 C13.2406559,16.2454552 18.2006559,16.2454552 22.08,13.92 C22.1579861,14.1722685 19.1490587,22.272 18.166956,22.272 C17.1848534,22.272 9.57809017,22.6649219 8.38904508,21.9049957 C7.2,21.1450694 6.72,20.6955533 6.72,20.1039815 C6.72,19.7096003 6.88,17.6482731 7.2,13.92 Z" id="icon-excellent_quality_路径-2" fill-opacity="0.1" fill="#2B8CED"></path>
                            </g>
                        </g>
                    </g>
                </g>
            </g>
        </g>
    </g>
</symbol></defs><use xlink:href="#icon-excellent_quality"></use></svg>