<svg xmlns:xlink="http://www.w3.org/1999/xlink" xmlns="http://www.w3.org/2000/svg" aria-hidden="true" width="24" height="24" class="opacity-40 hover:opacity-100"><defs><symbol xmlns="http://www.w3.org/2000/svg" xmlns:xlink="http://www.w3.org/1999/xlink" viewBox="0 0 24 24" id="icon-linkedin">
    <!-- Generator: Sketch 60 (88103) - https://sketch.com -->
    <g id="icon-linkedin_页面-1" stroke="none" stroke-width="1" fill="none" fill-rule="evenodd">
        <g id="icon-linkedin_首页" transform="translate(-1655.000000, -3981.000000)" fill="none">
            <g id="icon-linkedin_-mockplus-" transform="translate(1655.000000, 3981.000000)" fill="none">
                <g id="icon-linkedin_face-book备份-3" fill="none">
                    <g fill="none">
                        <g fill="none">
                            <circle id="icon-linkedin_椭圆形" fill="#FFFFFF" cx="12" cy="12" r="12"></circle>
                            <path d="M5.81048427,9.8503123 L8.46581337,9.8503123 L8.46581337,18.4 L5.81048427,18.4 L5.81048427,9.8503123 L5.81048427,9.8503123 Z M7.13894849,5.6 C7.9878827,5.6 8.67619769,6.29086217 8.67619769,7.14036358 C8.67619769,7.99075237 7.9878827,8.68151435 7.13896277,8.68151435 C6.28700125,8.68151435 5.6,7.99075237 5.6,7.14036358 C5.6,6.29086217 6.28698697,5.6 7.13896277,5.6 M10.1303242,9.8503123 L12.6731855,9.8503123 L12.6731855,11.0188383 L12.7092563,11.0188383 C13.0628242,10.34611 13.9288085,9.63771511 15.2194598,9.63771511 C17.9035341,9.63771511 18.4,11.4076934 18.4,13.7103669 L18.4,18.4 L15.7496688,18.4 L15.7496688,14.243191 C15.7496688,13.2508226 15.7300484,11.9752395 14.3708112,11.9752395 C12.9901829,11.9752395 12.7797129,13.0552 12.7797129,14.169811 L12.7797129,18.4 L10.1303242,18.4 L10.1303242,9.8503123 Z" id="icon-linkedin_形状" fill="#313131" fill-rule="nonzero"></path>
                        </g>
                    </g>
                </g>
            </g>
        </g>
    </g>
</symbol></defs><use xlink:href="#icon-linkedin"></use></svg>