<?xml version="1.0" encoding="UTF-8"?>
<svg width="160px" height="141px" viewBox="0 0 160 141" version="1.1" xmlns="http://www.w3.org/2000/svg" xmlns:xlink="http://www.w3.org/1999/xlink">
    <!-- Generator: Sketch 60 (88103) - https://sketch.com -->
    <title>no_orders</title>
    <desc>Created with Sketch.</desc>
    <defs>
        <linearGradient x1="50%" y1="0.211173615%" x2="62.7969715%" y2="97.5725157%" id="linearGradient-1">
            <stop stop-color="#E6F2FF" stop-opacity="0.396661932" offset="0%"></stop>
            <stop stop-color="#4CA5FD" offset="100%"></stop>
        </linearGradient>
        <linearGradient x1="50%" y1="0%" x2="62.7969715%" y2="97.7742891%" id="linearGradient-2">
            <stop stop-color="#E6F2FF" stop-opacity="0.396661932" offset="0%"></stop>
            <stop stop-color="#4CA5FD" offset="100%"></stop>
        </linearGradient>
        <circle id="path-3" cx="70.5" cy="70.5" r="70.5"></circle>
        <linearGradient x1="50%" y1="-53.356375%" x2="50%" y2="76.5564908%" id="linearGradient-5">
            <stop stop-color="#C9E3FD" offset="0%"></stop>
            <stop stop-color="#3B95EE" offset="100%"></stop>
        </linearGradient>
        <linearGradient x1="50%" y1="-9.18425331%" x2="50%" y2="143.048488%" id="linearGradient-6">
            <stop stop-color="#C9E3FD" offset="0%"></stop>
            <stop stop-color="#3B95EE" offset="100%"></stop>
        </linearGradient>
        <linearGradient x1="50%" y1="0%" x2="47.9498397%" y2="137.259797%" id="linearGradient-7">
            <stop stop-color="#FFFFFF" offset="0%"></stop>
            <stop stop-color="#E4F1FF" offset="100%"></stop>
        </linearGradient>
        <linearGradient x1="50%" y1="-9.18425331%" x2="50%" y2="108.094116%" id="linearGradient-8">
            <stop stop-color="#C9E3FD" offset="0%"></stop>
            <stop stop-color="#3B95EE" offset="100%"></stop>
        </linearGradient>
        <linearGradient x1="50%" y1="-9.18425331%" x2="50%" y2="108.094116%" id="linearGradient-9">
            <stop stop-color="#C9E3FD" offset="0%"></stop>
            <stop stop-color="#3B95EE" offset="100%"></stop>
        </linearGradient>
        <linearGradient x1="50%" y1="-8.93429026%" x2="-48.2695769%" y2="244.567116%" id="linearGradient-10">
            <stop stop-color="#C9E3FD" offset="0%"></stop>
            <stop stop-color="#3B95EE" offset="100%"></stop>
        </linearGradient>
        <linearGradient x1="50%" y1="-40.6151221%" x2="50%" y2="108.094116%" id="linearGradient-11">
            <stop stop-color="#C9E3FD" offset="0%"></stop>
            <stop stop-color="#3B95EE" offset="100%"></stop>
        </linearGradient>
        <linearGradient x1="50%" y1="0%" x2="50%" y2="198.816918%" id="linearGradient-12">
            <stop stop-color="#C9E3FD" offset="0%"></stop>
            <stop stop-color="#3B95EE" offset="100%"></stop>
        </linearGradient>
    </defs>
    <g id="组件" stroke="none" stroke-width="1" fill="none" fill-rule="evenodd">
        <g id="no_orders">
            <g>
                <ellipse id="椭圆形" fill="url(#linearGradient-1)" fill-rule="nonzero" opacity="0.23" cx="86.2337662" cy="70.5" rx="70.6493506" ry="70.5"></ellipse>
                <g id="编组" transform="translate(18.701299, 0.000000)">
                    <mask id="mask-4" fill="white">
                        <use xlink:href="#path-3"></use>
                    </mask>
                    <use id="蒙版" fill="url(#linearGradient-2)" fill-rule="nonzero" opacity="0.23" xlink:href="#path-3"></use>
                    <g mask="url(#mask-4)">
                        <g transform="translate(30.129870, 33.176471)">
                            <rect id="矩形" fill="url(#linearGradient-5)" x="0" y="8.29411765" width="76.8831169" height="136.852941" rx="4"></rect>
                            <path d="M38.4415584,0 C40.9547731,0 43.0511482,1.78092905 43.5324554,4.1470916 L52.1038961,4.14705882 C54.3130351,4.14705882 56.1038961,5.93791982 56.1038961,8.14705882 L56.1038961,12.4411765 L18.7012987,12.4411765 L18.7012987,8.14705882 C18.7012987,5.93791982 20.4921597,4.14705882 22.7012987,4.14705882 L33.3506615,4.1470916 C33.8319686,1.78092905 35.9283438,0 38.4415584,0 Z" id="形状结合" fill="url(#linearGradient-6)"></path>
                            <ellipse id="椭圆形" fill="#73B4F4" cx="38.4415584" cy="5.18382353" rx="3.11688312" ry="3.11029412"></ellipse>
                            <rect id="矩形备份" fill="url(#linearGradient-7)" x="4.15584416" y="14.5147059" width="68.5714286" height="103.676471" rx="4"></rect>
                            <rect id="矩形" fill="#B4D7FA" opacity="0.5" x="12.4675325" y="29.0294118" width="45.7142857" height="4.14705882" rx="2"></rect>
                            <rect id="矩形备份-2" fill="#B4D7FA" opacity="0.699999988" x="12.4675325" y="39.3970588" width="45.7142857" height="4.14705882" rx="2"></rect>
                            <rect id="矩形备份-3" fill="#B4D7FA" opacity="0.800000012" x="12.4675325" y="49.7647059" width="29.0909091" height="4.14705882" rx="2"></rect>
                            <rect id="矩形备份-5" fill="#B4D7FA" x="12.4675325" y="80.8676471" width="45.7142857" height="4.14705882" rx="2"></rect>
                            <rect id="矩形备份-6" fill="#B4D7FA" opacity="0.900000036" x="12.4675325" y="70.5" width="29.0909091" height="4.14705882" rx="2"></rect>
                        </g>
                    </g>
                </g>
                <polygon id="星形" fill="url(#linearGradient-8)" opacity="0.5" points="128.831169 31.2601626 126.6272 32.2654865 127.634653 30.0661765 126.6272 27.8668664 128.831169 28.8721903 131.035138 27.8668664 130.027684 30.0661765 131.035138 32.2654865"></polygon>
                <polygon id="星形备份" fill="url(#linearGradient-9)" opacity="0.800000012" transform="translate(116.363636, 19.698529) rotate(-43.000000) translate(-116.363636, -19.698529) " points="116.365739 21.6904671 112.697839 23.3637848 114.371405 19.6964267 112.690093 16.0255277 116.361534 17.7065917 120.029433 16.033274 118.355868 19.7006321 120.03718 23.3715311"></polygon>
                <ellipse id="椭圆形" fill="url(#linearGradient-10)" opacity="0.5" cx="48.8311688" cy="10.3676471" rx="6.23376623" ry="6.22058824"></ellipse>
                <ellipse id="椭圆形备份-3" fill="#D4E8FE" cx="34.2857143" cy="93.3088235" rx="4.15584416" ry="4.14705882"></ellipse>
                <ellipse id="椭圆形备份" fill="url(#linearGradient-11)" opacity="0.900000036" cx="8.31168831" cy="117.154412" rx="8.31168831" ry="8.29411765"></ellipse>
                <ellipse id="椭圆形备份-2" fill="url(#linearGradient-12)" cx="146.493506" cy="120.264706" rx="6.23376623" ry="6.22058824"></ellipse>
            </g>
        </g>
    </g>
</svg>