<svg xmlns="http://www.w3.org/2000/svg" xmlns:xlink="http://www.w3.org/1999/xlink" width="14" height="14" viewBox="0 0 14 14" version="1.1">
    <!-- Generator: Sketch 60 (88103) - https://sketch.com -->
    <title>question_mark</title>
    <desc>Created with Sketch.</desc>
    <g id="组件" stroke="none" stroke-width="1" fill="none" fill-rule="evenodd">
        <g id="question_mark">
            <circle id="椭圆形" fill="#DBDBDB" cx="7" cy="7" r="7"/>
            <g id="编组" transform="translate(4.000000, 2.000000)" fill="#FFFFFF" fill-rule="nonzero">
                <path d="M5.214,0.736 C5.738,1.22233334 6,1.889 6,2.736 C6,3.43066666 5.83,4 5.51533334,4.44433334 C5.39733334,4.58333334 5.01733334,4.95833334 4.38866666,5.54166666 C4.16823709,5.73473167 3.98987473,5.97107316 3.86466666,6.236 C3.73156767,6.51822063 3.66432002,6.82698993 3.668,7.139 L3.668,7.33333334 L2.16133334,7.33333334 L2.16133334,7.139 C2.16133334,6.611 2.24033334,6.15266666 2.42366666,5.77766666 C2.59366666,5.40266666 3.10466666,4.81933332 3.95633334,4.014 L4.11366666,3.81933334 C4.34933332,3.514 4.467,3.18066668 4.467,2.83333334 C4.467,2.375 4.33633334,2.014 4.10033334,1.75 C3.85166668,1.486 3.49766668,1.361 3.05233334,1.361 C2.47566668,1.361 2.07,1.54166666 1.821,1.93066666 C1.59833334,2.25 1.49333334,2.70833332 1.49333334,3.29166666 C1.36226958,3.68772891 1.07515462,3.86361781 0.631988451,3.81933334 C0.343680086,3.79052342 0.133017269,3.61463452 0,3.29166666 C0,2.264 0.275,1.45833332 0.85166666,0.875 C1.415,0.29166666 2.17466666,0 3.144,0 C3.99566666,0 4.69,0.236 5.214,0.736 Z M2.99366666,8 C3.27733332,8 3.52266666,8.09266666 3.716,8.278 C3.89666666,8.46366666 4,8.702 4,8.99333334 C4,9.28466668 3.89666666,9.53666668 3.70333334,9.722 C3.50966668,9.90733334 3.27733334,10 2.99333334,10 C2.70966668,10 2.47733334,9.894 2.284,9.70866666 C2.09,9.52333334 2,9.28466666 2,8.99333334 C2,8.702 2.09033334,8.46333334 2.284,8.278 C2.47733334,8.09266666 2.70966666,8 2.99366666,8 L2.99366666,8 Z" id="形状"/>
            </g>
        </g>
    </g>
</svg>