<svg xmlns:xlink="http://www.w3.org/1999/xlink" xmlns="http://www.w3.org/2000/svg" aria-hidden="true" width="25" height="26" class="mr-10"><defs><symbol xmlns="http://www.w3.org/2000/svg" xmlns:xlink="http://www.w3.org/1999/xlink" viewBox="0 0 25 26" id="icon-24h_support">
    <!-- Generator: Sketch 60 (88103) - https://sketch.com -->
    <g id="icon-24h_support_页面-1" stroke="none" stroke-width="1" fill="none" fill-rule="evenodd">
        <g id="icon-24h_support_首页" transform="translate(-239.000000, -3136.000000)" fill="#2B8CED">
            <g id="icon-24h_support_编组-32" transform="translate(239.000000, 2812.000000)" fill="#2B8CED">
                <g id="icon-24h_support_编组-6备份-2" transform="translate(0.000000, 324.000000)" fill="#2B8CED">
                    <g id="icon-24h_support_-mockplus-" transform="translate(0.550000, 0.500000)" fill="#2B8CED">
                        <g id="icon-24h_support_service_icon" fill="#2B8CED">
                            <g fill="#2B8CED">
                                <path d="M21.8071429,10.244 L21.8071429,10.1 C21.8071429,4.804 17.3878571,0.5 11.95,0.5 C6.51214286,0.5 2.09285714,4.804 2.09285714,10.1 L2.09285714,10.244 C1.14,10.58 0.45,11.46 0.45,12.5 L0.45,15.7 C0.45,17.028 1.55071429,18.1 2.91428571,18.1 C4.27785714,18.1 5.37857143,17.028 5.37857143,15.7 L5.37857143,12.5 C5.37857143,11.46 4.68857143,10.58 3.73571429,10.244 L3.73571429,10.1 C3.73571429,5.684 7.41571429,2.1 11.95,2.1 C16.4842857,2.1 20.1642857,5.684 20.1642857,10.1 L20.1642857,10.244 C19.2114286,10.58 18.5214286,11.46 18.5214286,12.5 L18.5214286,15.7 C18.5214286,17.028 19.6221429,18.1 20.9857143,18.1 C22.3492857,18.1 23.45,17.028 23.45,15.7 L23.45,12.5 C23.45,11.46 22.76,10.58 21.8071429,10.244 Z M15.2357143,22.836 L15.2357143,22.1 C15.2357143,21.652 14.8742857,21.3 14.4142857,21.3 L11.1285714,21.3 C10.6685714,21.3 10.3071429,21.652 10.3071429,22.1 L10.3071429,23.7 C10.3071429,24.148 10.6685714,24.5 11.1285714,24.5 L14.4142857,24.5 C18.505,24.5 21.8071429,21.636 21.8071429,18.1 L20.9857143,18.1 L20.1642857,18.1 C20.1642857,20.516 18.0121429,22.5 15.2357143,22.836 Z" id="icon-24h_support_形状" fill-rule="nonzero" fill="#2B8CED"></path>
                                <path d="M2.92703088,12.9489315 C2.30887063,7.94418993 3.57049811,4.61818262 6.71191331,2.97090957 C11.4240361,0.5 15.3378725,1.6009831 18.3423323,4.30678327 C20.3453055,6.11065005 21.2865019,8.99136613 21.1659216,12.9489315 C19.2835287,16.9885231 16.2115549,19.0083189 11.95,19.0083189 C7.68844513,19.0083189 4.68078876,16.9885231 2.92703088,12.9489315 Z" id="icon-24h_support_路径-2" fill-opacity="0.1" fill="#2B8CED"></path>
                            </g>
                        </g>
                    </g>
                </g>
            </g>
        </g>
    </g>
</symbol></defs><use xlink:href="#icon-24h_support"></use></svg>