<svg xmlns:xlink="http://www.w3.org/1999/xlink" xmlns="http://www.w3.org/2000/svg" aria-hidden="true" width="24" height="24" class="opacity-40 hover:opacity-100"><defs><symbol xmlns="http://www.w3.org/2000/svg" xmlns:xlink="http://www.w3.org/1999/xlink" viewBox="0 0 24 24" id="icon-twitter">
    <!-- Generator: Sketch 60 (88103) - https://sketch.com -->
    <g id="icon-twitter_页面-1" stroke="none" stroke-width="1" fill="none" fill-rule="evenodd">
        <g id="icon-twitter_首页" transform="translate(-1554.000000, -3981.000000)" fill="none">
            <g id="icon-twitter_-mockplus-" transform="translate(1554.000000, 3981.000000)" fill="none">
                <g id="icon-twitter_face-book备份" fill="none">
                    <g fill="none">
                        <g fill="none">
                            <circle id="icon-twitter_椭圆形" fill="#313131" cx="12" cy="11.4" r="10.8"></circle>
                            <path d="M12,0 C18.6461539,0 24,5.35384615 24,12 C24,18.6461539 18.6461539,24 12,24 C5.35384615,24 0,18.6461539 0,12 C0,5.35384615 5.35384615,0 12,0 Z M17.1641292,7.50189773 C16.3589117,6.64622175 15.1251395,6.369421 14.0404174,6.80108299 C12.9556954,7.23274499 12.2347008,8.28743949 12.2149758,9.47139895 C12.2134647,9.6971935 12.2400356,9.92227678 12.2940568,10.1412973 C10.1850554,10.0378528 8.19797791,9.10595463 6.75179575,7.54209163 C6.66792797,7.44738622 6.54122856,7.40452036 6.41825692,7.42924637 C6.29528528,7.45397238 6.1941811,7.5426429 6.15209807,7.66267334 C5.74441002,8.89791737 6.20731025,10.2572827 7.27900251,10.9719713 C6.92029452,10.9688585 6.56598586,10.891355 6.23776916,10.7442059 C6.18267146,10.7206506 6.11948038,10.7279849 6.0710243,10.7635593 C6.02256822,10.7991336 5.99585162,10.8578056 6.00052612,10.9183794 C6.13204876,12.1810734 7.05104295,13.2127334 8.27410525,13.4706922 C7.94922559,13.5670266 7.60913678,13.5988682 7.27241242,13.564478 C7.21282329,13.5597263 7.15510507,13.5868844 7.12010902,13.6361412 C7.08511296,13.685398 7.07789786,13.7496333 7.10107023,13.8056414 C7.55982942,14.8310447 8.55668373,15.4979129 9.66461308,15.5205813 C8.69491009,16.2809976 7.51453403,16.712205 6.29048984,16.7531943 C6.24504707,16.7531943 6.20146551,16.7715447 6.16933261,16.8042085 C6.13719971,16.8368724 6.11914764,16.8811742 6.11914764,16.9273679 L6.11914764,16.9273679 L6.11914764,17.0010567 C6.1189188,17.06786 6.15776739,17.1284122 6.21799891,17.1551333 C7.3350545,17.7145309 8.56435185,18.0034318 9.80959494,17.9992053 C11.9635414,18.0297215 14.0394429,17.1803119 15.5719242,15.6413969 C17.1044054,14.1024819 17.96527,12.0027963 17.9615294,9.81304712 L17.9615294,9.81304712 L17.9615294,9.44460303 C18.4284168,9.11643846 18.8401052,8.71378186 19.180695,8.25218392 C19.1991949,8.2244479 19.2047387,8.18983719 19.1958502,8.15756804 C19.1869617,8.1252989 19.1645432,8.098647 19.1345644,8.08470932 C19.0987728,8.05995663 19.0517345,8.05995663 19.0159429,8.08470932 C18.5908772,8.2452282 18.1483595,8.35318744 17.697926,8.40626054 C18.2123043,8.09326423 18.6177703,7.62489351 18.8577809,7.06646379 C18.8804314,7.02956729 18.8804314,6.98277859 18.8577809,6.94588209 C18.8214842,6.92285728 18.7754561,6.92285728 18.7391594,6.94588209 C18.2436439,7.20833325 17.7130114,7.39565662 17.1641292,7.50189773 Z" id="icon-twitter_形状" fill="#FFFFFF" fill-rule="nonzero"></path>
                            <g id="icon-twitter_twitter" transform="translate(4.200000, 5.400000)" fill="none"></g>
                        </g>
                    </g>
                </g>
            </g>
        </g>
    </g>
</symbol></defs><use xlink:href="#icon-twitter"></use></svg>