<svg xmlns:xlink="http://www.w3.org/1999/xlink" xmlns="http://www.w3.org/2000/svg" aria-hidden="true" width="24" height="24" class="opacity-40 hover:opacity-100"><defs><symbol xmlns="http://www.w3.org/2000/svg" xmlns:xlink="http://www.w3.org/1999/xlink" viewBox="0 0 24 24" id="icon-youtube">
    <!-- Generator: Sketch 60 (88103) - https://sketch.com -->
    <g id="icon-youtube_页面-1" stroke="none" stroke-width="1" fill="none" fill-rule="evenodd">
        <g id="icon-youtube_首页" transform="translate(-1621.000000, -3981.000000)" fill="none">
            <g id="icon-youtube_-mockplus-" transform="translate(1621.000000, 3981.000000)" fill="none">
                <g id="icon-youtube_face-book备份-4" fill="none">
                    <g fill="none">
                        <g fill="none">
                            <circle id="icon-youtube_椭圆形" fill="#313131" cx="12" cy="11.4" r="10.8"></circle>
                            <path d="M12,0 C18.6461539,0 24,5.35384615 24,12 C24,18.6461539 18.6461539,24 12,24 C5.35384615,24 0,18.6461539 0,12 C0,5.35384615 5.35384615,0 12,0 Z M11.7942484,7.00068369 L11.3351546,7.00068369 C10.6386533,7.00396538 8.48775862,7.02299923 6.96768657,7.13339552 C6.71115672,7.1641791 6.15212687,7.16664179 5.65179104,7.68996269 C5.25652985,8.08768657 5.13093284,8.99313433 5.13093284,8.99313433 C5.13093284,8.99313433 5,10.0553731 5,11.1196642 L5,12.115 C5,13.1768284 5.13093284,14.2415299 5.13093284,14.2415299 C5.13093284,14.2415299 5.25940299,15.1469776 5.65179104,15.5447015 C6.15212687,16.0680224 6.80884328,16.0499627 7.10108209,16.1066045 C8.08050952,16.1998469 11.1074881,16.2329614 11.520344,16.2370854 L11.6517032,16.2372451 C12.1283697,16.2351698 14.5174344,16.2190672 16.1641791,16.1016791 C16.420709,16.0708955 16.9801493,16.0684328 17.4800746,15.5451119 C17.8749254,15.1473881 18.0033955,14.2419403 18.0033955,14.2419403 C18.0033955,14.2419403 18.1343284,13.1801119 18.1343284,12.1154104 L18.1343284,11.1200746 C18.1318657,10.0578358 18.0009328,8.99354478 18.0009328,8.99354478 C18.0009328,8.99313433 17.8724627,8.08768657 17.4776119,7.68996269 C16.9772761,7.16664179 16.4182463,7.1641791 16.1617164,7.13339552 C14.6416444,7.02299923 12.4907497,7.00396538 11.7942484,7.00068369 Z M10.2077612,9.63179104 L13.7556716,11.4841418 L10.2077612,13.3233582 L10.2077612,9.63179104 Z" id="icon-youtube_形状" fill="#FFFFFF" fill-rule="nonzero"></path>
                        </g>
                    </g>
                </g>
            </g>
        </g>
    </g>
</symbol></defs><use xlink:href="#icon-youtube"></use></svg>