<?xml version="1.0" encoding="UTF-8"?>
<svg width="90px" height="90px" viewBox="0 0 90 90" version="1.1" xmlns="http://www.w3.org/2000/svg" xmlns:xlink="http://www.w3.org/1999/xlink">
    <!-- Generator: Sketch 63.1 (92452) - https://sketch.com -->
    <title>smt_icon备份</title>
    <desc>Created with Sketch.</desc>
    <defs>
        <circle id="path-1" cx="45" cy="45" r="45"></circle>
        <circle id="path-3" cx="45" cy="45" r="40"></circle>
        <rect id="path-5" x="0" y="0" width="108" height="108"></rect>
    </defs>
    <g id="页面-1" stroke="none" stroke-width="1" fill="none" fill-rule="evenodd">
        <g id="点击箭头滚动下一张" transform="translate(-1097.000000, -918.000000)">
            <g id="编组-6备份-13" transform="translate(976.000000, 845.000000)">
                <g id="编组-7备份" transform="translate(121.000000, 73.000000)">
                    <g id="smt_icon">
                        <mask id="mask-2" fill="white">
                            <use xlink:href="#path-1"></use>
                        </mask>
                        <use id="蒙版" fill="#E3E7ED" xlink:href="#path-1"></use>
                        <mask id="mask-4" fill="white">
                            <use xlink:href="#path-3"></use>
                        </mask>
                        <use id="蒙版备份" fill="#D0D4DA" xlink:href="#path-3"></use>
                        <g id="picture_img" mask="url(#mask-4)">
                            <g transform="translate(-11.000000, -6.000000)" id="picture_icon备份">
                                <g>
                                    <g id="位图">
                                        <mask id="mask-6" fill="white">
                                            <use xlink:href="#path-5"></use>
                                        </mask>
                                        <use id="蒙版" fill="#463B25" opacity="0.800000012" xlink:href="#path-5"></use>
                                        <g id="编组-3" mask="url(#mask-6)">
                                            <g transform="translate(25.000000, 26.000000)">
                                                <polygon id="路径-10" fill="#999384" points="50.5942481 87.9326577 17.1011311 72.0089685 17.1011311 14.6699275 50.5942481 30.5936166"></polygon>
                                                <g id="3D副本" stroke-width="1" fill="none">
                                                    <g id="编组-14" transform="translate(0.230291, 0.992899)">
                                                        <g id="3D" transform="translate(0.173277, 26.098212)">
                                                            <path d="M10.4715419,49.7246229 C11.9796083,49.0129452 13.5888336,49.0485127 15.2992177,49.8313253 C15.4047079,49.7963317 15.6432121,35.484048 16.0147304,6.89447419 C17.1072777,6.43935788 17.6535513,5.59711023 17.6535513,4.36773124 C17.6535513,2.52366275 15.5980592,0.644404862 12.7336415,0.644404862 C9.86922392,0.644404862 7.07690868,2.53388172 8.0454073,5.03912571 C8.69107305,6.70928836 9.49978459,7.16657147 10.4715419,6.41097502 L10.4715419,49.7246229 Z" id="路径-15" fill="#797366"></path>
                                                            <polygon id="路径-13" fill="#999384" points="5.31880203 11.8122094 11.0209944 6.41097502 11.0209944 41.4755552 5.31880203 46.6506024"></polygon>
                                                            <path d="M0.61230299,5.03912571 L0.61230299,34.5521566 C0.518235759,36.3165526 0.842332675,37.7648764 1.58459374,38.897128 C2.47969359,40.201232 3.89837245,41.3117366 5.84063033,42.2286419 L5.84063033,11.8122094 L0.61230299,5.03912571 Z" id="路径-14" fill="#797366"></path>
                                                        </g>
                                                        <path d="M50.3639571,74.3644827 L50.3639571,29.600718 L62.0970043,14.4356954 L62.0970043,59.8230768 C62.1792665,61.5263861 61.6821362,62.9719174 60.6056135,64.1596706 C59.5290909,65.3474238 56.1152054,68.7490279 50.3639571,74.3644827 Z" id="路径-3" fill="#797366"></path>
                                                        <polygon id="路径-12" fill="#999384" points="22.6230101 75.9295376 22.6230101 35.8756382 15.8189303 32.6698175 15.8189303 72.7237169"></polygon>
                                                        <path d="M18.9541522,44.6158192 L18.9541522,79.6836066 L34.2743764,79.3114538 C37.0497721,77.9214477 38.9800989,76.1600576 40.0653568,74.0272832 C40.7582155,72.6813974 41.0507887,71.2288057 41.0507887,70.5199785 C41.0507887,70.047427 41.0507887,58.5194956 41.0507887,35.9361844 L18.9541522,44.6158192 Z" id="路径-11" fill="#797366"></path>
                                                        <path d="M23.1448384,41.0513204 L23.1448384,35.8756382 C23.6436573,33.8031267 25.1795108,32.842874 27.7523991,32.9948803 C31.6117314,33.2228896 33.8396053,33.7485372 33.3833582,35.9361844 C32.9271112,38.1238316 32.9601129,39.3899161 31.1408239,39.9980291 C29.321535,40.606142 25.7571264,41.0513204 25.4468376,41.0513204 C25.2399784,41.0513204 24.4726453,41.0513204 23.1448384,41.0513204 Z" id="路径-16" fill="#797366"></path>
                                                        <path d="M51.7625087,18.0870533 L49.2948127,20.4980053 L30.4962926,11.5201389 L32.9816807,9.10029279 C34.3977531,7.71960951 35.9145837,7.32940128 37.5471207,7.37118939 C38.9289836,7.38511364 40.0228202,7.68063346 45.6384637,10.3860145 C51.3242028,13.1022279 52.0598011,13.6837698 52.5563427,14.5683598 C53.1785711,15.604447 53.1684713,16.7114523 51.7625087,18.0870533 Z" id="路径备份" fill="#797366" fill-rule="nonzero"></path>
                                                        <path d="M37.9517255,41.7095852 C42.2324636,37.5734097 42.6640622,32.312107 35.4932972,28.9639741 C31.4188961,27.0457693 27.8917838,27.4948951 25.2642113,28.174944 C25.4000302,26.4619414 24.8889562,24.3424298 21.1768878,22.5687252 C15.343507,19.7615419 7.84018512,20.9668411 3.2624438,25.3634386 C-1.16985553,29.6075529 -0.899946815,34.8707697 5.49207864,37.9104216 L11.194271,32.5091873 C9.14417596,31.533235 9.10289048,29.8733759 10.2837453,28.7400444 C11.4626351,27.6077008 13.6292562,27.0997096 15.77115,28.1228419 C17.2962943,28.8493872 18.3103536,30.2744516 16.6157595,31.9041496 L15.8189303,32.6698175 L22.6230101,35.8756382 L23.4178549,35.1109679 C24.9359219,33.6493801 27.5738565,33.3085579 29.6404368,34.2762229 C32.0954268,35.421943 32.2701064,36.9769412 30.7906688,38.403236 C29.377115,39.7646631 27.0646664,40.2685087 24.653337,39.1475041 L18.9541522,44.6158192 C26.7007765,48.1877666 33.8863374,45.6263865 37.9517255,41.7095852 Z M58.9908295,21.1775357 C61.3887539,18.826654 62.6222517,16.1722687 61.8841307,13.5302548 C60.6719209,9.16673115 56.3072708,7.39045008 51.2330444,4.97389309 L50.831786,4.7813371 C45.6078818,2.25402793 41.669364,-0.0924999309 35.1291201,0.661024246 C31.264161,1.10781189 28.036231,2.8322865 25.6075257,5.19864211 L16.8708402,13.6770288 L50.3639571,29.600718 L58.9908295,21.1775357 Z M51.2406804,18.0870533 L48.7729844,20.4980053 L29.9744643,11.5201389 L32.4598524,9.10029279 C33.8759248,7.71960951 35.3927554,7.32940128 37.0252924,7.37118939 C38.4071553,7.38511364 39.5009919,7.68063346 45.1166354,10.3860145 C50.8023745,13.1022279 51.5379728,13.6837698 52.0345144,14.5683598 C52.6567429,15.604447 52.646643,16.7114523 51.2406804,18.0870533 Z" id="3D备份" fill="#FFFFFF" fill-rule="nonzero"></path>
                                                    </g>
                                                </g>
                                            </g>
                                        </g>
                                    </g>
                                </g>
                            </g>
                        </g>
                    </g>
                </g>
            </g>
        </g>
    </g>
</svg>