<?xml version="1.0" encoding="UTF-8"?>
<svg width="90px" height="90px" viewBox="0 0 90 90" version="1.1" xmlns="http://www.w3.org/2000/svg" xmlns:xlink="http://www.w3.org/1999/xlink">
    <!-- Generator: Sketch 60 (88103) - https://sketch.com -->
    <defs>
        <circle id="path-1" cx="45" cy="45" r="45"></circle>
        <circle id="path-3" cx="45" cy="45" r="40"></circle>
        <filter x="-18.2%" y="-66.7%" width="138.6%" height="233.3%" filterUnits="objectBoundingBox" id="filter-5">
            <feOffset dx="0" dy="2" in="SourceAlpha" result="shadowOffsetOuter1"></feOffset>
            <feGaussianBlur stdDeviation="1" in="shadowOffsetOuter1" result="shadowBlurOuter1"></feGaussianBlur>
            <feColorMatrix values="0 0 0 0 0   0 0 0 0 0   0 0 0 0 0  0 0 0 0.3 0" type="matrix" in="shadowBlurOuter1" result="shadowMatrixOuter1"></feColorMatrix>
            <feMerge>
                <feMergeNode in="shadowMatrixOuter1"></feMergeNode>
                <feMergeNode in="SourceGraphic"></feMergeNode>
            </feMerge>
        </filter>
        <filter x="-25.4%" y="-24.8%" width="152.4%" height="149.6%" filterUnits="objectBoundingBox" id="filter-6">
            <feOffset dx="0" dy="2" in="SourceAlpha" result="shadowOffsetOuter1"></feOffset>
            <feGaussianBlur stdDeviation="1" in="shadowOffsetOuter1" result="shadowBlurOuter1"></feGaussianBlur>
            <feColorMatrix values="0 0 0 0 0   0 0 0 0 0   0 0 0 0 0  0 0 0 0.3 0" type="matrix" in="shadowBlurOuter1" result="shadowMatrixOuter1"></feColorMatrix>
            <feMerge>
                <feMergeNode in="shadowMatrixOuter1"></feMergeNode>
                <feMergeNode in="SourceGraphic"></feMergeNode>
            </feMerge>
        </filter>
    </defs>
    <g id="页面-1" stroke="none" stroke-width="1" fill="none" fill-rule="evenodd">
        <g id="首页" transform="translate(-1100.000000, -918.000000)">
            <g id="编组-6备份-12" transform="translate(980.000000, 845.000000)">
                <g id="-mockplus-" transform="translate(120.000000, 73.000000)">
                    <g id="编组-7">
                        <g id="ass_icon">
                            <mask id="mask-2" fill="white">
                                <use xlink:href="#path-1"></use>
                            </mask>
                            <use id="蒙版" fill="#E3E7ED" xlink:href="#path-1"></use>
                            <mask id="mask-4" fill="white">
                                <use xlink:href="#path-3"></use>
                            </mask>
                            <use id="蒙版备份" fill="#2F926C" xlink:href="#path-3"></use>
                            <g id="-mockplus-" mask="url(#mask-4)">
                                <g transform="translate(15.000000, 15.000000)" id="smt_icon">
                                    <g>
                                        <g id="编组">
                                            <g id="smt_icon">
                                                <rect id="矩形" fill="#2F926C" x="0" y="0" width="60" height="60" rx="2.66666667"></rect>
                                                <g id="编组-21" filter="url(#filter-5)" transform="translate(8.000000, 42.000000)">
                                                    <g id="-mockplus-">
                                                        <g id="编组-20">
                                                            <g>
                                                                <rect id="矩形" fill="#090909" x="0" y="2" width="8" height="8"></rect>
                                                                <rect id="矩形备份-9" fill="#CACACA" x="0" y="10" width="2" height="2"></rect>
                                                                <rect id="矩形备份-25" fill="#CACACA" x="6" y="10" width="2" height="2"></rect>
                                                                <rect id="矩形备份-27" fill="#CACACA" x="0" y="0" width="2" height="2"></rect>
                                                                <rect id="矩形备份-26" fill="#CACACA" x="6" y="0" width="2" height="2"></rect>
                                                            </g>
                                                        </g>
                                                    </g>
                                                    <g id="-mockplus-" transform="translate(18.000000, 0.000000)">
                                                        <g id="编组-20备份">
                                                            <g id="编组-20">
                                                                <rect id="矩形" fill="#090909" x="0" y="2" width="8" height="8"></rect>
                                                                <rect id="矩形备份-9" fill="#CACACA" x="0" y="10" width="2" height="2"></rect>
                                                                <rect id="矩形备份-25" fill="#CACACA" x="6" y="10" width="2" height="2"></rect>
                                                                <rect id="矩形备份-27" fill="#CACACA" x="0" y="0" width="2" height="2"></rect>
                                                                <rect id="矩形备份-26" fill="#CACACA" x="6" y="0" width="2" height="2"></rect>
                                                            </g>
                                                        </g>
                                                    </g>
                                                    <g id="-mockplus-" transform="translate(36.000000, 0.000000)">
                                                        <g id="编组-20备份-2">
                                                            <g id="编组-20">
                                                                <rect id="矩形" fill="#090909" x="0" y="2" width="8" height="8"></rect>
                                                                <rect id="矩形备份-9" fill="#CACACA" x="0" y="10" width="2" height="2"></rect>
                                                                <rect id="矩形备份-25" fill="#CACACA" x="6" y="10" width="2" height="2"></rect>
                                                                <rect id="矩形备份-27" fill="#CACACA" x="0" y="0" width="2" height="2"></rect>
                                                                <rect id="矩形备份-26" fill="#CACACA" x="6" y="0" width="2" height="2"></rect>
                                                            </g>
                                                        </g>
                                                    </g>
                                                </g>
                                                <g id="编组-15" filter="url(#filter-6)" transform="translate(14.750000, 4.000000)">
                                                    <path d="M7.86538462,27.0769231 L7.86538462,32 L5.40384615,32 L5.40384615,27.0769231 L7.86538462,27.0769231 Z M12.7884615,27.0769231 L12.7884615,32 L10.3269231,32 L10.3269231,27.0769231 L12.7884615,27.0769231 Z M17.7115385,27.0769231 L17.7115385,32 L15.25,32 L15.25,27.0769231 L17.7115385,27.0769231 Z M22.6346154,27.0769231 L22.6346154,32 L20.1730769,32 L20.1730769,27.0769231 L22.6346154,27.0769231 Z M27.5576923,27.0769231 L27.5576923,32 L25.0961538,32 L25.0961538,27.0769231 L27.5576923,27.0769231 Z" id="形状结合" fill="#CACACA"></path>
                                                    <path d="M7.86538462,0 L7.86538462,4.92307692 L5.40384615,4.92307692 L5.40384615,0 L7.86538462,0 Z M12.7884615,0 L12.7884615,4.92307692 L10.3269231,4.92307692 L10.3269231,0 L12.7884615,0 Z M17.7115385,0 L17.7115385,4.92307692 L15.25,4.92307692 L15.25,0 L17.7115385,0 Z M22.6346154,0 L22.6346154,4.92307692 L20.1730769,4.92307692 L20.1730769,0 L22.6346154,0 Z M27.5576923,0 L27.5576923,4.92307692 L25.0961538,4.92307692 L25.0961538,0 L27.5576923,0 Z" id="形状结合备份" fill="#CACACA"></path>
                                                    <path d="M-5.67307692,13.5384615 L-5.67307692,18.4615385 L-8.13461538,18.4615385 L-8.13461538,13.5384615 L-5.67307692,13.5384615 Z M-0.75,13.5384615 L-0.75,18.4615385 L-3.21153846,18.4615385 L-3.21153846,13.5384615 L-0.75,13.5384615 Z M4.17307692,13.5384615 L4.17307692,18.4615385 L1.71153846,18.4615385 L1.71153846,13.5384615 L4.17307692,13.5384615 Z M9.09615385,13.5384615 L9.09615385,18.4615385 L6.63461538,18.4615385 L6.63461538,13.5384615 L9.09615385,13.5384615 Z M14.0192308,13.5384615 L14.0192308,18.4615385 L11.5576923,18.4615385 L11.5576923,13.5384615 L14.0192308,13.5384615 Z" id="形状结合备份-2" fill="#CACACA" transform="translate(2.942308, 16.000000) rotate(-90.000000) translate(-2.942308, -16.000000) "></path>
                                                    <path d="M20.1730769,13.5384615 L20.1730769,18.4615385 L17.7115385,18.4615385 L17.7115385,13.5384615 L20.1730769,13.5384615 Z M25.0961538,13.5384615 L25.0961538,18.4615385 L22.6346154,18.4615385 L22.6346154,13.5384615 L25.0961538,13.5384615 Z M30.0192308,13.5384615 L30.0192308,18.4615385 L27.5576923,18.4615385 L27.5576923,13.5384615 L30.0192308,13.5384615 Z M34.9423077,13.5384615 L34.9423077,18.4615385 L32.4807692,18.4615385 L32.4807692,13.5384615 L34.9423077,13.5384615 Z M39.8653846,13.5384615 L39.8653846,18.4615385 L37.4038462,18.4615385 L37.4038462,13.5384615 L39.8653846,13.5384615 Z" id="形状结合备份-3" fill="#CACACA" transform="translate(28.788462, 16.000000) rotate(-90.000000) translate(-28.788462, -16.000000) "></path>
                                                    <rect id="矩形" fill="#090909" x="5.40384615" y="4.92307692" width="22.1538462" height="22.1538462"></rect>
                                                </g>
                                            </g>
                                        </g>
                                    </g>
                                </g>
                            </g>
                        </g>
                    </g>
                </g>
            </g>
        </g>
    </g>
</svg>