<?xml version="1.0" encoding="UTF-8"?>
<svg width="24px" height="24px" viewBox="0 0 24 24" version="1.1" xmlns="http://www.w3.org/2000/svg" xmlns:xlink="http://www.w3.org/1999/xlink">
    <!-- Generator: Sketch 60 (88103) - https://sketch.com -->
    <title>shopping _icon</title>
    <desc>Created with Sketch.</desc>
    <g id="组件" stroke="none" stroke-width="1" fill="none" fill-rule="evenodd">
        <g id="shopping-_icon">
            <g>
                <g transform="translate(6.000000, 12.000000)" fill="#222222">
                    <circle id="椭圆形" cx="2" cy="10" r="2"></circle>
                    <circle id="椭圆形备份" cx="15" cy="10" r="2"></circle>
                    <path d="M11.5,0.5 C11.5,0.776142375 11.2761424,1 11,1 L1.5,1 L1.5,1 C1.22385763,1 1,0.776142375 1,0.5 C1,0.254540111 1.17687516,0.0503916296 1.41012437,0.00805566941 L1.5,0 L11,0 C11.2761424,-5.07265313e-17 11.5,0.223857625 11.5,0.5 Z" id="路径-3" fill-rule="nonzero"></path>
                </g>
                <path d="M1,2 L4.17007371,2 C4.65128878,2 5.06426348,2.34273856 5.1529459,2.81571146 L7.8470541,17.1842885 C7.93573652,17.6572614 8.34871122,18 8.82992629,18 L20.1654236,18 C20.6487098,18 21.0628407,17.6543761 21.1492936,17.1788854 L22.7856572,8.17888544 C22.8844529,7.63550909 22.5240491,7.11492579 21.9806727,7.01613009 C21.9216488,7.00539847 21.8617789,7 21.8017873,7 L6,7 L6,7" id="路径-7" stroke="#222222" stroke-linecap="round"></path>
            </g>
        </g>
    </g>
</svg>